# xmcd CD database file
#
# Track frame offsets:
#	150
#	16964
#	35289
#	52803
#	67010
#	81853
#	98279
#	114843
#	131316
#	147254
#	164329
#
# Disc length: 2416 seconds
#
# Revision: 0
# Processed by: cddbd v1.5.2PL0 Copyright (c) Steve Scherf et al.
# Submitted via: CDex 1.70beta2
#
DISCID=7d096e0b
DTITLE=Roxie Randle - Roxie Randle Promo
DYEAR=2011
DGENRE=Country
TTITLE0=Everything I'm Not
TTITLE1=Where Does the Love Go
TTITLE2=If You Could Only See
TTITLE3=It's All Been Said Before
TTITLE4=Stand on the Sun
TTITLE5=Out on a Limb
TTITLE6=You Were Wrong
TTITLE7=I Know What You're Thinking
TTITLE8=I Wish it Would Rain
TTITLE9=The Perfect Pair of Shoes
TTITLE10=Missing You (bonus track)
EXTD=YEAR: 2011
EXTT0=
EXTT1=
EXTT2=
EXTT3=
EXTT4=
EXTT5=
EXTT6=
EXTT7=
EXTT8=
EXTT9=
EXTT10=
PLAYORDER=
